<?xml version="1.0" encoding="UTF-8"?>
<svg width="162px" height="270px" viewBox="0 0 162 270" version="1.1" xmlns="http://www.w3.org/2000/svg" xmlns:xlink="http://www.w3.org/1999/xlink">
    <!-- Generator: Sketch 58 (84663) - https://sketch.com -->
    <title>no-report-type</title>
    <desc>Created with Sketch.</desc>
    <g id="Page-1" stroke="none" stroke-width="1" fill="none" fill-rule="evenodd">
        <g id="Artboard" transform="translate(-161.000000, -53.000000)">
            <g id="no-report-type" transform="translate(161.000000, 52.000000)">
                <g id="Group_1834" transform="translate(0.000000, 0.999000)" fill-rule="nonzero">
                    <rect id="Rectangle_625" fill="#8E5746" x="134.716" y="95.148" width="4.899" height="174.659"></rect>
                    <rect id="Rectangle_626" fill="#8E5746" x="31.626" y="95.148" width="4.899" height="174.659"></rect>
                    <path d="M7.075,2.115 L154.133,2.115 C158.039862,2.115 161.207,5.28213768 161.207,9.189 L161.207,230.873 C161.207,234.780415 158.039415,237.948 154.132,237.948 L7.075,237.948 C3.16758539,237.948 0,234.780415 0,230.873 L0,9.19 C0,5.28258539 3.16758539,2.115 7.075,2.115 Z" id="Rectangle_627" fill="#BDAFAA"></path>
                    <rect id="Rectangle_628" fill="#FFFFFF" x="4.422" y="6.605" width="152.361" height="220.44" rx="6.99"></rect>
                    <rect id="Rectangle_629" fill="#8E5746" x="56.584" y="0" width="48.038" height="10.847"></rect>
                </g>
                <g id="TYPE" transform="translate(19.847000, 26.716000)" fill="#333333" font-family="OpenSans-Regular, Open Sans" font-size="13" font-weight="normal">
                    <text id="LEVEL">
                        <tspan x="0" y="14">Class</tspan>
                    </text>
                </g>
                <g id="Group_1836" transform="translate(23.092000, 91.397000)">
                    <g id="Group_1835" transform="translate(25.855000, 0.000000)" fill="#13C5FD" fill-rule="nonzero">
                        <rect id="Rectangle_630" x="0" y="0" width="90.296" height="4.125"></rect>
                        <rect id="Rectangle_631" x="0" y="10.393" width="90.296" height="4.125"></rect>
                    </g>
                    <circle id="Ellipse_108" stroke="#B4B4B4" stroke-width="0.75" cx="5.194" cy="7.259" r="5.194"></circle>
                </g>
                <g id="Group_1838" transform="translate(23.092000, 126.434000)">
                    <g id="Group_1837" transform="translate(25.855000, 0.000000)" fill-rule="nonzero">
                        <rect id="Rectangle_632" fill="#EAEAEA" x="0" y="0" width="90.296" height="4.125"></rect>
                        <rect id="Rectangle_633" fill="#13C5FD" x="0" y="10.393" width="90.296" height="4.125"></rect>
                    </g>
                    <circle id="Ellipse_109" stroke="#B4B4B4" stroke-width="0.75" cx="5.194" cy="7.259" r="5.194"></circle>
                </g>
                <g id="Group_1841" transform="translate(23.092000, 56.360000)">
                    <g id="Group_1839" transform="translate(25.855000, 0.000000)" fill-rule="nonzero">
                        <rect id="Rectangle_634" fill="#EAEAEA" x="0" y="0" width="90.296" height="4.125"></rect>
                        <rect id="Rectangle_635" fill="#13C5FD" x="0" y="10.393" width="90.296" height="4.125"></rect>
                    </g>
                    <g id="Group_1840" transform="translate(0.000000, 2.065000)">
                        <circle id="Ellipse_110" stroke="#B4B4B4" stroke-width="0.75" cx="5.194" cy="5.194" r="5.194"></circle>
                        <circle id="Ellipse_111" fill="#13C5FD" fill-rule="nonzero" cx="5.194" cy="5.194" r="3.449"></circle>
                    </g>
                </g>
                <g id="Group_1858" transform="translate(13.092000, 157.740000)" fill="#C1BFBF" fill-rule="nonzero">
                    <rect id="Rectangle_637" x="0" y="0" width="133.547" height="2.445" rx="0.588"></rect>
                    <rect id="Rectangle_638" x="12.471" y="8.75" width="108.604" height="2.445" rx="0.588"></rect>
                    <rect id="Rectangle_639" x="12.471" y="17.499" width="108.604" height="2.445" rx="0.588"></rect>
                    <rect id="Rectangle_640" x="13.209" y="26.249" width="108.604" height="2.445" rx="0.588"></rect>
                    <rect id="Rectangle_641" x="13.209" y="34.998" width="108.604" height="2.445" rx="0.588"></rect>
                </g>
            </g>
        </g>
    </g>
</svg>
