<?xml version="1.0"?><svg fill="#000000" xmlns="http://www.w3.org/2000/svg"  viewBox="0 0 100 100" width="200px" height="200px">    <path d="M 26.654297 8.3085938 C 21.288297 8.3085938 16.921875 12.672062 16.921875 18.039062 L 16.921875 79.574219 C 16.921875 84.940219 21.288297 89.306641 26.654297 89.306641 L 70.189453 89.306641 C 75.555453 89.306641 79.920875 84.941172 79.921875 79.576172 L 79.921875 29.556641 C 79.921875 29.291641 79.816906 29.037609 79.628906 28.849609 L 59.382812 8.6015625 C 59.195813 8.4135625 58.941781 8.3085938 58.675781 8.3085938 L 26.654297 8.3085938 z M 26.654297 10.306641 L 57.921875 10.306641 L 57.921875 20.792969 C 57.921875 26.039969 62.189547 30.306641 67.435547 30.306641 L 77.921875 30.306641 L 77.921875 79.574219 C 77.921875 83.837219 74.453453 87.306641 70.189453 87.306641 L 26.654297 87.306641 C 22.391297 87.306641 18.921875 83.838219 18.921875 79.574219 L 18.921875 18.039062 C 18.921875 13.776062 22.390297 10.306641 26.654297 10.306641 z M 58.921875 10.96875 L 77.259766 29.306641 L 67.435547 29.306641 C 62.739547 29.306641 58.921875 25.487969 58.921875 20.792969 L 58.921875 10.96875 z M 30.578125 15.265625 C 28.967125 15.265625 27.423281 15.767797 26.113281 16.716797 C 24.113281 18.164797 22.921875 20.497078 22.921875 22.955078 L 22.921875 75.617188 C 22.921875 79.856187 26.355125 83.306641 30.578125 83.306641 L 66.263672 83.306641 C 70.486672 83.306641 73.921875 79.856188 73.921875 75.617188 L 73.921875 57.806641 C 73.921875 57.530641 73.697875 57.306641 73.421875 57.306641 C 73.145875 57.306641 72.921875 57.530641 72.921875 57.806641 L 72.921875 75.619141 C 72.921875 79.307141 69.934672 82.308594 66.263672 82.308594 L 30.578125 82.308594 C 26.907125 82.308594 23.921875 79.307141 23.921875 75.619141 L 23.921875 22.955078 C 23.921875 20.817078 24.959219 18.789344 26.699219 17.527344 C 27.838219 16.702344 29.180125 16.265625 30.578125 16.265625 C 30.854125 16.265625 31.078125 16.041625 31.078125 15.765625 C 31.078125 15.489625 30.854125 15.265625 30.578125 15.265625 z M 28.421875 37.306641 C 28.145875 37.306641 27.921875 37.530641 27.921875 37.806641 C 27.921875 38.082641 28.145875 38.306641 28.421875 38.306641 L 49.421875 38.306641 C 49.698875 38.306641 49.921875 38.082641 49.921875 37.806641 C 49.921875 37.530641 49.697875 37.306641 49.421875 37.306641 L 28.421875 37.306641 z M 52.421875 37.306641 C 52.145875 37.306641 51.921875 37.530641 51.921875 37.806641 L 51.921875 51.806641 C 51.921875 52.082641 52.145875 52.306641 52.421875 52.306641 C 52.697875 52.306641 52.921875 52.082641 52.921875 51.806641 L 52.921875 38.306641 L 67.921875 38.306641 L 67.921875 53.306641 L 56.421875 53.306641 C 56.145875 53.306641 55.921875 53.530641 55.921875 53.806641 C 55.921875 54.082641 56.145875 54.306641 56.421875 54.306641 L 68.421875 54.306641 C 68.698875 54.306641 68.921875 54.082641 68.921875 53.806641 L 68.921875 37.806641 C 68.921875 37.530641 68.697875 37.306641 68.421875 37.306641 L 52.421875 37.306641 z M 28.421875 44.306641 C 28.145875 44.306641 27.921875 44.530641 27.921875 44.806641 C 27.921875 45.082641 28.145875 45.306641 28.421875 45.306641 L 49.421875 45.306641 C 49.698875 45.306641 49.921875 45.082641 49.921875 44.806641 C 49.921875 44.530641 49.697875 44.306641 49.421875 44.306641 L 28.421875 44.306641 z M 73.421875 44.306641 C 73.145875 44.306641 72.921875 44.530641 72.921875 44.806641 L 72.921875 47.806641 C 72.921875 48.082641 73.145875 48.306641 73.421875 48.306641 C 73.698875 48.306641 73.921875 48.082641 73.921875 47.806641 L 73.921875 44.806641 C 73.921875 44.530641 73.697875 44.306641 73.421875 44.306641 z M 73.421875 49.306641 C 73.145875 49.306641 72.921875 49.530641 72.921875 49.806641 L 72.921875 55.806641 C 72.921875 56.082641 73.145875 56.306641 73.421875 56.306641 C 73.698875 56.306641 73.921875 56.082641 73.921875 55.806641 L 73.921875 49.806641 C 73.921875 49.530641 73.697875 49.306641 73.421875 49.306641 z M 28.421875 51.306641 C 28.145875 51.306641 27.921875 51.530641 27.921875 51.806641 C 27.921875 52.082641 28.145875 52.306641 28.421875 52.306641 L 49.421875 52.306641 C 49.698875 52.306641 49.921875 52.082641 49.921875 51.806641 C 49.921875 51.530641 49.697875 51.306641 49.421875 51.306641 L 28.421875 51.306641 z M 28.421875 58.306641 C 28.145875 58.306641 27.921875 58.530641 27.921875 58.806641 C 27.921875 59.082641 28.145875 59.306641 28.421875 59.306641 L 41.421875 59.306641 C 41.698875 59.306641 41.921875 59.082641 41.921875 58.806641 C 41.921875 58.530641 41.697875 58.306641 41.421875 58.306641 L 28.421875 58.306641 z M 44.421875 58.306641 C 44.145875 58.306641 43.921875 58.530641 43.921875 58.806641 C 43.921875 59.082641 44.145875 59.306641 44.421875 59.306641 L 68.421875 59.306641 C 68.698875 59.306641 68.921875 59.082641 68.921875 58.806641 C 68.921875 58.530641 68.697875 58.306641 68.421875 58.306641 L 44.421875 58.306641 z M 28.421875 65.306641 C 28.145875 65.306641 27.921875 65.530641 27.921875 65.806641 C 27.921875 66.082641 28.145875 66.306641 28.421875 66.306641 L 45.421875 66.306641 C 45.698875 66.306641 45.921875 66.082641 45.921875 65.806641 C 45.921875 65.530641 45.697875 65.306641 45.421875 65.306641 L 28.421875 65.306641 z M 48.421875 65.306641 C 48.145875 65.306641 47.921875 65.530641 47.921875 65.806641 C 47.921875 66.082641 48.145875 66.306641 48.421875 66.306641 L 59.421875 66.306641 C 59.698875 66.306641 59.921875 66.082641 59.921875 65.806641 C 59.921875 65.530641 59.697875 65.306641 59.421875 65.306641 L 48.421875 65.306641 z M 61.421875 65.306641 C 61.145875 65.306641 60.921875 65.530641 60.921875 65.806641 C 60.921875 66.082641 61.145875 66.306641 61.421875 66.306641 L 69.421875 66.306641 C 69.698875 66.306641 69.921875 66.082641 69.921875 65.806641 C 69.921875 65.530641 69.697875 65.306641 69.421875 65.306641 L 61.421875 65.306641 z M 28.421875 72.306641 C 28.145875 72.306641 27.921875 72.530641 27.921875 72.806641 C 27.921875 73.082641 28.145875 73.306641 28.421875 73.306641 L 52.421875 73.306641 C 52.698875 73.306641 52.921875 73.082641 52.921875 72.806641 C 52.921875 72.530641 52.697875 72.306641 52.421875 72.306641 L 28.421875 72.306641 z M 54.421875 72.306641 C 54.145875 72.306641 53.921875 72.530641 53.921875 72.806641 C 53.921875 73.082641 54.145875 73.306641 54.421875 73.306641 L 68.421875 73.306641 C 68.698875 73.306641 68.921875 73.082641 68.921875 72.806641 C 68.921875 72.530641 68.697875 72.306641 68.421875 72.306641 L 54.421875 72.306641 z"/></svg>