<svg xmlns="http://www.w3.org/2000/svg" width="25" height="25" viewBox="0 0 25 25">
    <path fill="gray" fill-rule="nonzero" d="M23.535 13.359v-2.324a.732.732 0 0 0-.732-.732c-1.513 0-2.924.128-4.257.388a6.613 6.613 0 0 0-2.75-1.592 5.118 5.118 0 0 0 1.83-3.923C17.627 2.322 15.328 0 12.5 0 9.673 0 7.373 2.322 7.373 5.176c0 1.573.712 2.982 1.83 3.923a6.614 6.614 0 0 0-2.75 1.592 22.099 22.099 0 0 0-4.256-.388.732.732 0 0 0-.732.732v2.324A2.2 2.2 0 0 0 0 15.429v1.466a2.2 2.2 0 0 0 1.465 2.071v2.323c0 .405.328.733.732.733 3.83 0 6.974.907 9.897 2.855a.735.735 0 0 0 .812 0c2.923-1.948 6.067-2.855 9.897-2.855a.732.732 0 0 0 .732-.733v-2.323A2.2 2.2 0 0 0 25 16.895V15.43a2.2 2.2 0 0 0-1.465-2.071zM8.838 5.176c0-2.046 1.643-3.71 3.662-3.71 2.02 0 3.662 1.664 3.662 3.71A3.666 3.666 0 0 1 12.5 8.838a3.666 3.666 0 0 1-3.662-3.662zm-6.64 12.451a.733.733 0 0 1-.733-.732V15.43a.733.733 0 0 1 1.465 0v1.465a.733.733 0 0 1-.733.732zm9.57 5.327c-2.66-1.52-5.512-2.29-8.838-2.387v-1.6a2.2 2.2 0 0 0 1.464-2.072V15.43a2.2 2.2 0 0 0-1.464-2.071v-1.58c3.441.098 6.207.908 8.838 2.583v8.592zm.732-9.861a17.407 17.407 0 0 0-4.261-1.959 5.138 5.138 0 0 1 2.796-.831h2.93c1 0 1.97.295 2.796.831a17.406 17.406 0 0 0-4.261 1.959zm9.57 7.474c-3.326.098-6.179.866-8.838 2.387v-8.591c2.63-1.675 5.397-2.486 8.838-2.585v1.58a2.2 2.2 0 0 0-1.465 2.072v1.465a2.2 2.2 0 0 0 1.465 2.071v1.601zm1.465-3.672a.733.733 0 0 1-1.465 0V15.43a.733.733 0 0 1 1.465 0v1.465z"/>
</svg>
